<?xml version="1.0" ?><svg viewBox="0 0 64 64" xmlns="http://www.w3.org/2000/svg"><defs><style>.cls-1{fill:none;stroke:#000;stroke-linecap:round;stroke-miterlimit:10;stroke-width:2px;}</style></defs><title/><g data-name="Layer 2" id="Layer_2"><path  style="stroke: white;" class="cls-1" d="M13.55,37.56,41.69,23.8a.14.14,0,0,1,.15.23L19.66,42a2.06,2.06,0,0,0-.77,1.6v8.81a.41.41,0,0,0,.61.36l7.75-4.3h0l6.85,4.8A.83.83,0,0,0,35.3,53L60,11.06a.31.31,0,0,0-.37-.44L4.54,31a.83.83,0,0,0-.19,1.45l7.11,5A2.06,2.06,0,0,0,13.55,37.56Z"/></g></svg>